<mxfile host="app.diagrams.net" modified="2023-11-29T14:44:16.236Z" agent="Mozilla/5.0 (Macintosh; Intel Mac OS X 10_15_7) AppleWebKit/605.1.15 (KHTML, like Gecko) Version/17.1 Safari/605.1.15" etag="lqMiCQem04235sIONPb5" version="22.1.4" type="device">
  <diagram name="Sayfa -1" id="IlJXXTZ3FANzN9V9RfP8">
    <mxGraphModel dx="2020" dy="1853" grid="1" gridSize="10" guides="1" tooltips="1" connect="1" arrows="1" fold="1" page="1" pageScale="1" pageWidth="827" pageHeight="1169" math="0" shadow="0">
      <root>
        <mxCell id="0" />
        <mxCell id="1" parent="0" />
        <mxCell id="2mVvWZZznoN7XNSVlVtN-13" style="edgeStyle=orthogonalEdgeStyle;rounded=0;orthogonalLoop=1;jettySize=auto;html=1;exitX=1;exitY=0.5;exitDx=0;exitDy=0;endArrow=none;endFill=0;" edge="1" parent="1" source="2mVvWZZznoN7XNSVlVtN-1" target="2mVvWZZznoN7XNSVlVtN-12">
          <mxGeometry relative="1" as="geometry" />
        </mxCell>
        <mxCell id="2mVvWZZznoN7XNSVlVtN-88" value="n" style="edgeLabel;html=1;align=center;verticalAlign=middle;resizable=0;points=[];" vertex="1" connectable="0" parent="2mVvWZZznoN7XNSVlVtN-13">
          <mxGeometry x="0.4167" y="1" relative="1" as="geometry">
            <mxPoint as="offset" />
          </mxGeometry>
        </mxCell>
        <mxCell id="2mVvWZZznoN7XNSVlVtN-44" style="edgeStyle=orthogonalEdgeStyle;rounded=0;orthogonalLoop=1;jettySize=auto;html=1;exitX=0.25;exitY=1;exitDx=0;exitDy=0;entryX=1;entryY=0;entryDx=0;entryDy=0;endArrow=none;endFill=0;" edge="1" parent="1" source="2mVvWZZznoN7XNSVlVtN-1" target="2mVvWZZznoN7XNSVlVtN-43">
          <mxGeometry relative="1" as="geometry" />
        </mxCell>
        <mxCell id="2mVvWZZznoN7XNSVlVtN-1" value="Bitki" style="whiteSpace=wrap;html=1;align=center;fillColor=#dae8fc;strokeColor=#6c8ebf;" vertex="1" parent="1">
          <mxGeometry x="120" y="300" width="100" height="40" as="geometry" />
        </mxCell>
        <mxCell id="2mVvWZZznoN7XNSVlVtN-2" value="Herbalist" style="whiteSpace=wrap;html=1;align=center;fillColor=#dae8fc;strokeColor=#6c8ebf;" vertex="1" parent="1">
          <mxGeometry x="780" y="300" width="100" height="40" as="geometry" />
        </mxCell>
        <mxCell id="2mVvWZZznoN7XNSVlVtN-6" style="edgeStyle=orthogonalEdgeStyle;rounded=0;orthogonalLoop=1;jettySize=auto;html=1;exitX=1;exitY=0.5;exitDx=0;exitDy=0;entryX=0;entryY=0.5;entryDx=0;entryDy=0;endArrow=none;endFill=0;" edge="1" parent="1" source="2mVvWZZznoN7XNSVlVtN-4" target="2mVvWZZznoN7XNSVlVtN-5">
          <mxGeometry relative="1" as="geometry" />
        </mxCell>
        <mxCell id="2mVvWZZznoN7XNSVlVtN-90" value="n" style="edgeLabel;html=1;align=center;verticalAlign=middle;resizable=0;points=[];" vertex="1" connectable="0" parent="2mVvWZZznoN7XNSVlVtN-6">
          <mxGeometry x="-0.2" y="1" relative="1" as="geometry">
            <mxPoint as="offset" />
          </mxGeometry>
        </mxCell>
        <mxCell id="2mVvWZZznoN7XNSVlVtN-4" value="Bölgeler" style="whiteSpace=wrap;html=1;align=center;fillColor=#dae8fc;strokeColor=#6c8ebf;" vertex="1" parent="1">
          <mxGeometry x="450" y="300" width="100" height="40" as="geometry" />
        </mxCell>
        <mxCell id="2mVvWZZznoN7XNSVlVtN-7" style="edgeStyle=orthogonalEdgeStyle;rounded=0;orthogonalLoop=1;jettySize=auto;html=1;exitX=1;exitY=0.5;exitDx=0;exitDy=0;entryX=0;entryY=0.5;entryDx=0;entryDy=0;endArrow=none;endFill=0;" edge="1" parent="1" source="2mVvWZZznoN7XNSVlVtN-5" target="2mVvWZZznoN7XNSVlVtN-2">
          <mxGeometry relative="1" as="geometry" />
        </mxCell>
        <mxCell id="2mVvWZZznoN7XNSVlVtN-91" value="m" style="edgeLabel;html=1;align=center;verticalAlign=middle;resizable=0;points=[];" vertex="1" connectable="0" parent="2mVvWZZznoN7XNSVlVtN-7">
          <mxGeometry x="-0.4167" y="2" relative="1" as="geometry">
            <mxPoint as="offset" />
          </mxGeometry>
        </mxCell>
        <mxCell id="2mVvWZZznoN7XNSVlVtN-5" value="bölge_herbalist" style="shape=rhombus;perimeter=rhombusPerimeter;whiteSpace=wrap;html=1;align=center;fillColor=#d5e8d4;strokeColor=#82b366;" vertex="1" parent="1">
          <mxGeometry x="600" y="290" width="120" height="60" as="geometry" />
        </mxCell>
        <mxCell id="2mVvWZZznoN7XNSVlVtN-14" style="edgeStyle=orthogonalEdgeStyle;rounded=0;orthogonalLoop=1;jettySize=auto;html=1;exitX=1;exitY=0.5;exitDx=0;exitDy=0;endArrow=none;endFill=0;" edge="1" parent="1" source="2mVvWZZznoN7XNSVlVtN-12" target="2mVvWZZznoN7XNSVlVtN-4">
          <mxGeometry relative="1" as="geometry" />
        </mxCell>
        <mxCell id="2mVvWZZznoN7XNSVlVtN-89" value="m" style="edgeLabel;html=1;align=center;verticalAlign=middle;resizable=0;points=[];" vertex="1" connectable="0" parent="2mVvWZZznoN7XNSVlVtN-14">
          <mxGeometry x="0.05" y="2" relative="1" as="geometry">
            <mxPoint as="offset" />
          </mxGeometry>
        </mxCell>
        <mxCell id="2mVvWZZznoN7XNSVlVtN-12" value="bölge_bitki" style="shape=rhombus;perimeter=rhombusPerimeter;whiteSpace=wrap;html=1;align=center;fillColor=#d5e8d4;strokeColor=#82b366;" vertex="1" parent="1">
          <mxGeometry x="280" y="290" width="120" height="60" as="geometry" />
        </mxCell>
        <mxCell id="2mVvWZZznoN7XNSVlVtN-18" style="edgeStyle=orthogonalEdgeStyle;rounded=0;orthogonalLoop=1;jettySize=auto;html=1;exitX=0.5;exitY=1;exitDx=0;exitDy=0;entryX=0.5;entryY=0;entryDx=0;entryDy=0;endArrow=none;endFill=0;" edge="1" parent="1" source="2mVvWZZznoN7XNSVlVtN-15" target="2mVvWZZznoN7XNSVlVtN-1">
          <mxGeometry relative="1" as="geometry" />
        </mxCell>
        <mxCell id="2mVvWZZznoN7XNSVlVtN-15" value="bitki_adi" style="ellipse;whiteSpace=wrap;html=1;align=center;fillColor=#ffe6cc;strokeColor=#d79b00;" vertex="1" parent="1">
          <mxGeometry x="130" y="190" width="100" height="40" as="geometry" />
        </mxCell>
        <mxCell id="2mVvWZZznoN7XNSVlVtN-17" style="edgeStyle=orthogonalEdgeStyle;rounded=0;orthogonalLoop=1;jettySize=auto;html=1;exitX=0.5;exitY=0;exitDx=0;exitDy=0;endArrow=none;endFill=0;" edge="1" parent="1" source="2mVvWZZznoN7XNSVlVtN-16" target="2mVvWZZznoN7XNSVlVtN-1">
          <mxGeometry relative="1" as="geometry" />
        </mxCell>
        <mxCell id="2mVvWZZznoN7XNSVlVtN-16" value="bitki_id" style="ellipse;whiteSpace=wrap;html=1;align=center;fontStyle=4;fillColor=#f8cecc;strokeColor=#b85450;" vertex="1" parent="1">
          <mxGeometry x="120" y="400" width="100" height="40" as="geometry" />
        </mxCell>
        <mxCell id="2mVvWZZznoN7XNSVlVtN-21" style="edgeStyle=orthogonalEdgeStyle;rounded=0;orthogonalLoop=1;jettySize=auto;html=1;exitX=0.5;exitY=1;exitDx=0;exitDy=0;endArrow=none;endFill=0;" edge="1" parent="1" source="2mVvWZZznoN7XNSVlVtN-19" target="2mVvWZZznoN7XNSVlVtN-20">
          <mxGeometry relative="1" as="geometry" />
        </mxCell>
        <mxCell id="2mVvWZZznoN7XNSVlVtN-84" value="m" style="edgeLabel;html=1;align=center;verticalAlign=middle;resizable=0;points=[];" vertex="1" connectable="0" parent="2mVvWZZznoN7XNSVlVtN-21">
          <mxGeometry x="0.0767" y="3" relative="1" as="geometry">
            <mxPoint x="-1" y="-1" as="offset" />
          </mxGeometry>
        </mxCell>
        <mxCell id="2mVvWZZznoN7XNSVlVtN-27" style="edgeStyle=orthogonalEdgeStyle;rounded=0;orthogonalLoop=1;jettySize=auto;html=1;exitX=0;exitY=0.5;exitDx=0;exitDy=0;entryX=1;entryY=0.5;entryDx=0;entryDy=0;endArrow=none;endFill=0;" edge="1" parent="1" source="2mVvWZZznoN7XNSVlVtN-19" target="2mVvWZZznoN7XNSVlVtN-24">
          <mxGeometry relative="1" as="geometry" />
        </mxCell>
        <mxCell id="2mVvWZZznoN7XNSVlVtN-83" value="n" style="edgeLabel;html=1;align=center;verticalAlign=middle;resizable=0;points=[];" vertex="1" connectable="0" parent="2mVvWZZznoN7XNSVlVtN-27">
          <mxGeometry x="0.2083" y="1" relative="1" as="geometry">
            <mxPoint as="offset" />
          </mxGeometry>
        </mxCell>
        <mxCell id="2mVvWZZznoN7XNSVlVtN-19" value="Taslar" style="whiteSpace=wrap;html=1;align=center;fillColor=#dae8fc;strokeColor=#6c8ebf;" vertex="1" parent="1">
          <mxGeometry x="450" y="-100" width="100" height="40" as="geometry" />
        </mxCell>
        <mxCell id="2mVvWZZznoN7XNSVlVtN-22" style="edgeStyle=orthogonalEdgeStyle;rounded=0;orthogonalLoop=1;jettySize=auto;html=1;exitX=0.5;exitY=1;exitDx=0;exitDy=0;endArrow=none;endFill=0;" edge="1" parent="1" source="2mVvWZZznoN7XNSVlVtN-20" target="2mVvWZZznoN7XNSVlVtN-4">
          <mxGeometry relative="1" as="geometry" />
        </mxCell>
        <mxCell id="2mVvWZZznoN7XNSVlVtN-85" value="n" style="edgeLabel;html=1;align=center;verticalAlign=middle;resizable=0;points=[];" vertex="1" connectable="0" parent="2mVvWZZznoN7XNSVlVtN-22">
          <mxGeometry x="-0.24" relative="1" as="geometry">
            <mxPoint y="-1" as="offset" />
          </mxGeometry>
        </mxCell>
        <mxCell id="2mVvWZZznoN7XNSVlVtN-20" value="bölge_tas" style="shape=rhombus;perimeter=rhombusPerimeter;whiteSpace=wrap;html=1;align=center;fillColor=#d5e8d4;strokeColor=#82b366;" vertex="1" parent="1">
          <mxGeometry x="440" y="90" width="120" height="60" as="geometry" />
        </mxCell>
        <mxCell id="2mVvWZZznoN7XNSVlVtN-26" style="edgeStyle=orthogonalEdgeStyle;rounded=0;orthogonalLoop=1;jettySize=auto;html=1;exitX=1;exitY=0.5;exitDx=0;exitDy=0;entryX=0;entryY=0.5;entryDx=0;entryDy=0;endArrow=none;endFill=0;" edge="1" parent="1" source="2mVvWZZznoN7XNSVlVtN-23" target="2mVvWZZznoN7XNSVlVtN-24">
          <mxGeometry relative="1" as="geometry" />
        </mxCell>
        <mxCell id="2mVvWZZznoN7XNSVlVtN-82" value="m" style="edgeLabel;html=1;align=center;verticalAlign=middle;resizable=0;points=[];" vertex="1" connectable="0" parent="2mVvWZZznoN7XNSVlVtN-26">
          <mxGeometry x="0.1304" y="-4" relative="1" as="geometry">
            <mxPoint as="offset" />
          </mxGeometry>
        </mxCell>
        <mxCell id="2mVvWZZznoN7XNSVlVtN-29" style="edgeStyle=orthogonalEdgeStyle;rounded=0;orthogonalLoop=1;jettySize=auto;html=1;exitX=0.5;exitY=1;exitDx=0;exitDy=0;endArrow=none;endFill=0;" edge="1" parent="1" source="2mVvWZZznoN7XNSVlVtN-23" target="2mVvWZZznoN7XNSVlVtN-28">
          <mxGeometry relative="1" as="geometry" />
        </mxCell>
        <mxCell id="2mVvWZZznoN7XNSVlVtN-86" value="n" style="edgeLabel;html=1;align=center;verticalAlign=middle;resizable=0;points=[];" vertex="1" connectable="0" parent="2mVvWZZznoN7XNSVlVtN-29">
          <mxGeometry x="0.1186" relative="1" as="geometry">
            <mxPoint y="-1" as="offset" />
          </mxGeometry>
        </mxCell>
        <mxCell id="2mVvWZZznoN7XNSVlVtN-23" value="Turler" style="whiteSpace=wrap;html=1;align=center;fillColor=#dae8fc;strokeColor=#6c8ebf;" vertex="1" parent="1">
          <mxGeometry x="-120" y="-100" width="100" height="40" as="geometry" />
        </mxCell>
        <mxCell id="2mVvWZZznoN7XNSVlVtN-24" value="tas_tur" style="shape=rhombus;perimeter=rhombusPerimeter;whiteSpace=wrap;html=1;align=center;fillColor=#d5e8d4;strokeColor=#82b366;" vertex="1" parent="1">
          <mxGeometry x="210" y="-110" width="120" height="60" as="geometry" />
        </mxCell>
        <mxCell id="2mVvWZZznoN7XNSVlVtN-30" style="edgeStyle=orthogonalEdgeStyle;rounded=0;orthogonalLoop=1;jettySize=auto;html=1;exitX=1;exitY=0.5;exitDx=0;exitDy=0;endArrow=none;endFill=0;" edge="1" parent="1" source="2mVvWZZznoN7XNSVlVtN-28" target="2mVvWZZznoN7XNSVlVtN-1">
          <mxGeometry relative="1" as="geometry" />
        </mxCell>
        <mxCell id="2mVvWZZznoN7XNSVlVtN-87" value="m" style="edgeLabel;html=1;align=center;verticalAlign=middle;resizable=0;points=[];" vertex="1" connectable="0" parent="2mVvWZZznoN7XNSVlVtN-30">
          <mxGeometry x="-0.6538" y="-1" relative="1" as="geometry">
            <mxPoint as="offset" />
          </mxGeometry>
        </mxCell>
        <mxCell id="2mVvWZZznoN7XNSVlVtN-28" value="bitki_tur" style="shape=rhombus;perimeter=rhombusPerimeter;whiteSpace=wrap;html=1;align=center;fillColor=#d5e8d4;strokeColor=#82b366;" vertex="1" parent="1">
          <mxGeometry x="-130" y="290" width="120" height="60" as="geometry" />
        </mxCell>
        <mxCell id="2mVvWZZznoN7XNSVlVtN-37" style="edgeStyle=orthogonalEdgeStyle;rounded=0;orthogonalLoop=1;jettySize=auto;html=1;exitX=0.5;exitY=0;exitDx=0;exitDy=0;entryX=0.5;entryY=1;entryDx=0;entryDy=0;endArrow=none;endFill=0;" edge="1" parent="1" source="2mVvWZZznoN7XNSVlVtN-31" target="2mVvWZZznoN7XNSVlVtN-4">
          <mxGeometry relative="1" as="geometry" />
        </mxCell>
        <mxCell id="2mVvWZZznoN7XNSVlVtN-31" value="bölge_id" style="ellipse;whiteSpace=wrap;html=1;align=center;fontStyle=4;fillColor=#f8cecc;strokeColor=#b85450;" vertex="1" parent="1">
          <mxGeometry x="450" y="400" width="100" height="40" as="geometry" />
        </mxCell>
        <mxCell id="2mVvWZZznoN7XNSVlVtN-38" style="edgeStyle=orthogonalEdgeStyle;rounded=0;orthogonalLoop=1;jettySize=auto;html=1;exitX=0.5;exitY=0;exitDx=0;exitDy=0;endArrow=none;endFill=0;" edge="1" parent="1" source="2mVvWZZznoN7XNSVlVtN-32" target="2mVvWZZznoN7XNSVlVtN-2">
          <mxGeometry relative="1" as="geometry">
            <Array as="points">
              <mxPoint x="790" y="370" />
              <mxPoint x="810" y="370" />
            </Array>
          </mxGeometry>
        </mxCell>
        <mxCell id="2mVvWZZznoN7XNSVlVtN-32" value="herbalist_id" style="ellipse;whiteSpace=wrap;html=1;align=center;fontStyle=4;fillColor=#f8cecc;strokeColor=#b85450;" vertex="1" parent="1">
          <mxGeometry x="740" y="400" width="100" height="40" as="geometry" />
        </mxCell>
        <mxCell id="2mVvWZZznoN7XNSVlVtN-35" style="edgeStyle=orthogonalEdgeStyle;rounded=0;orthogonalLoop=1;jettySize=auto;html=1;exitX=0.5;exitY=1;exitDx=0;exitDy=0;entryX=0.5;entryY=0;entryDx=0;entryDy=0;endArrow=none;endFill=0;" edge="1" parent="1" source="2mVvWZZznoN7XNSVlVtN-33" target="2mVvWZZznoN7XNSVlVtN-23">
          <mxGeometry relative="1" as="geometry" />
        </mxCell>
        <mxCell id="2mVvWZZznoN7XNSVlVtN-33" value="tür_id" style="ellipse;whiteSpace=wrap;html=1;align=center;fontStyle=4;fillColor=#f8cecc;strokeColor=#b85450;" vertex="1" parent="1">
          <mxGeometry x="-210" y="-190" width="100" height="40" as="geometry" />
        </mxCell>
        <mxCell id="2mVvWZZznoN7XNSVlVtN-36" style="edgeStyle=orthogonalEdgeStyle;rounded=0;orthogonalLoop=1;jettySize=auto;html=1;exitX=0.5;exitY=1;exitDx=0;exitDy=0;endArrow=none;endFill=0;" edge="1" parent="1" source="2mVvWZZznoN7XNSVlVtN-34" target="2mVvWZZznoN7XNSVlVtN-19">
          <mxGeometry relative="1" as="geometry" />
        </mxCell>
        <mxCell id="2mVvWZZznoN7XNSVlVtN-34" value="tas_id" style="ellipse;whiteSpace=wrap;html=1;align=center;fontStyle=4;fillColor=#f8cecc;strokeColor=#b85450;" vertex="1" parent="1">
          <mxGeometry x="460" y="-210" width="100" height="40" as="geometry" />
        </mxCell>
        <mxCell id="2mVvWZZznoN7XNSVlVtN-40" style="edgeStyle=orthogonalEdgeStyle;rounded=0;orthogonalLoop=1;jettySize=auto;html=1;exitX=0.5;exitY=1;exitDx=0;exitDy=0;entryX=0.25;entryY=0;entryDx=0;entryDy=0;endArrow=none;endFill=0;" edge="1" parent="1" source="2mVvWZZznoN7XNSVlVtN-39" target="2mVvWZZznoN7XNSVlVtN-4">
          <mxGeometry relative="1" as="geometry" />
        </mxCell>
        <mxCell id="2mVvWZZznoN7XNSVlVtN-39" value="bölge_adi" style="ellipse;whiteSpace=wrap;html=1;align=center;fillColor=#ffe6cc;strokeColor=#d79b00;" vertex="1" parent="1">
          <mxGeometry x="380" y="210" width="100" height="40" as="geometry" />
        </mxCell>
        <mxCell id="2mVvWZZznoN7XNSVlVtN-42" style="edgeStyle=orthogonalEdgeStyle;rounded=0;orthogonalLoop=1;jettySize=auto;html=1;exitX=0.5;exitY=1;exitDx=0;exitDy=0;entryX=0.25;entryY=0;entryDx=0;entryDy=0;endArrow=none;endFill=0;" edge="1" parent="1" source="2mVvWZZznoN7XNSVlVtN-41" target="2mVvWZZznoN7XNSVlVtN-1">
          <mxGeometry relative="1" as="geometry" />
        </mxCell>
        <mxCell id="2mVvWZZznoN7XNSVlVtN-41" value="bitki_degeri" style="ellipse;whiteSpace=wrap;html=1;align=center;fillColor=#ffe6cc;strokeColor=#d79b00;" vertex="1" parent="1">
          <mxGeometry x="10" y="200" width="100" height="40" as="geometry" />
        </mxCell>
        <mxCell id="2mVvWZZznoN7XNSVlVtN-43" value="bitki_yetistirme_kosul" style="ellipse;whiteSpace=wrap;html=1;align=center;fillColor=#ffe6cc;strokeColor=#d79b00;" vertex="1" parent="1">
          <mxGeometry y="400" width="100" height="40" as="geometry" />
        </mxCell>
        <mxCell id="2mVvWZZznoN7XNSVlVtN-50" style="edgeStyle=orthogonalEdgeStyle;rounded=0;orthogonalLoop=1;jettySize=auto;html=1;exitX=0.5;exitY=1;exitDx=0;exitDy=0;entryX=0.25;entryY=0;entryDx=0;entryDy=0;endArrow=none;endFill=0;" edge="1" parent="1" source="2mVvWZZznoN7XNSVlVtN-45" target="2mVvWZZznoN7XNSVlVtN-2">
          <mxGeometry relative="1" as="geometry" />
        </mxCell>
        <mxCell id="2mVvWZZznoN7XNSVlVtN-45" value="herbalist_adi" style="ellipse;whiteSpace=wrap;html=1;align=center;fillColor=#ffe6cc;strokeColor=#d79b00;" vertex="1" parent="1">
          <mxGeometry x="720" y="210" width="100" height="40" as="geometry" />
        </mxCell>
        <mxCell id="2mVvWZZznoN7XNSVlVtN-51" style="edgeStyle=orthogonalEdgeStyle;rounded=0;orthogonalLoop=1;jettySize=auto;html=1;exitX=0.5;exitY=1;exitDx=0;exitDy=0;endArrow=none;endFill=0;" edge="1" parent="1" source="2mVvWZZznoN7XNSVlVtN-46" target="2mVvWZZznoN7XNSVlVtN-2">
          <mxGeometry relative="1" as="geometry" />
        </mxCell>
        <mxCell id="2mVvWZZznoN7XNSVlVtN-46" value="herbalist_soyadi" style="ellipse;whiteSpace=wrap;html=1;align=center;fillColor=#ffe6cc;strokeColor=#d79b00;" vertex="1" parent="1">
          <mxGeometry x="850" y="210" width="100" height="40" as="geometry" />
        </mxCell>
        <mxCell id="2mVvWZZznoN7XNSVlVtN-52" style="edgeStyle=orthogonalEdgeStyle;rounded=0;orthogonalLoop=1;jettySize=auto;html=1;exitX=0;exitY=0.5;exitDx=0;exitDy=0;endArrow=none;endFill=0;" edge="1" parent="1" source="2mVvWZZznoN7XNSVlVtN-47" target="2mVvWZZznoN7XNSVlVtN-2">
          <mxGeometry relative="1" as="geometry" />
        </mxCell>
        <mxCell id="2mVvWZZznoN7XNSVlVtN-47" value="herbalist_tel" style="ellipse;whiteSpace=wrap;html=1;align=center;fillColor=#ffe6cc;strokeColor=#d79b00;" vertex="1" parent="1">
          <mxGeometry x="930" y="280" width="100" height="40" as="geometry" />
        </mxCell>
        <mxCell id="2mVvWZZznoN7XNSVlVtN-53" style="edgeStyle=orthogonalEdgeStyle;rounded=0;orthogonalLoop=1;jettySize=auto;html=1;exitX=0;exitY=0.5;exitDx=0;exitDy=0;entryX=1;entryY=1;entryDx=0;entryDy=0;endArrow=none;endFill=0;" edge="1" parent="1" source="2mVvWZZznoN7XNSVlVtN-48" target="2mVvWZZznoN7XNSVlVtN-2">
          <mxGeometry relative="1" as="geometry" />
        </mxCell>
        <mxCell id="2mVvWZZznoN7XNSVlVtN-48" value="herbalist_tc" style="ellipse;whiteSpace=wrap;html=1;align=center;fillColor=#ffe6cc;strokeColor=#d79b00;" vertex="1" parent="1">
          <mxGeometry x="920" y="350" width="100" height="40" as="geometry" />
        </mxCell>
        <mxCell id="2mVvWZZznoN7XNSVlVtN-56" style="edgeStyle=orthogonalEdgeStyle;rounded=0;orthogonalLoop=1;jettySize=auto;html=1;exitX=0;exitY=1;exitDx=0;exitDy=0;entryX=1;entryY=0;entryDx=0;entryDy=0;endArrow=none;endFill=0;" edge="1" parent="1" source="2mVvWZZznoN7XNSVlVtN-54" target="2mVvWZZznoN7XNSVlVtN-19">
          <mxGeometry relative="1" as="geometry" />
        </mxCell>
        <mxCell id="2mVvWZZznoN7XNSVlVtN-54" value="tas_adi" style="ellipse;whiteSpace=wrap;html=1;align=center;fillColor=#ffe6cc;strokeColor=#d79b00;" vertex="1" parent="1">
          <mxGeometry x="570" y="-160" width="100" height="40" as="geometry" />
        </mxCell>
        <mxCell id="2mVvWZZznoN7XNSVlVtN-57" style="edgeStyle=orthogonalEdgeStyle;rounded=0;orthogonalLoop=1;jettySize=auto;html=1;exitX=0;exitY=0.5;exitDx=0;exitDy=0;endArrow=none;endFill=0;" edge="1" parent="1" source="2mVvWZZznoN7XNSVlVtN-55" target="2mVvWZZznoN7XNSVlVtN-19">
          <mxGeometry relative="1" as="geometry" />
        </mxCell>
        <mxCell id="2mVvWZZznoN7XNSVlVtN-55" value="tas_degeri" style="ellipse;whiteSpace=wrap;html=1;align=center;fillColor=#ffe6cc;strokeColor=#d79b00;" vertex="1" parent="1">
          <mxGeometry x="600" y="-90" width="100" height="40" as="geometry" />
        </mxCell>
        <mxCell id="2mVvWZZznoN7XNSVlVtN-59" style="edgeStyle=orthogonalEdgeStyle;rounded=0;orthogonalLoop=1;jettySize=auto;html=1;exitX=0;exitY=1;exitDx=0;exitDy=0;entryX=1;entryY=0;entryDx=0;entryDy=0;endArrow=none;endFill=0;" edge="1" parent="1" source="2mVvWZZznoN7XNSVlVtN-58" target="2mVvWZZznoN7XNSVlVtN-23">
          <mxGeometry relative="1" as="geometry" />
        </mxCell>
        <mxCell id="2mVvWZZznoN7XNSVlVtN-58" value="tür_adi" style="ellipse;whiteSpace=wrap;html=1;align=center;fillColor=#ffe6cc;strokeColor=#d79b00;" vertex="1" parent="1">
          <mxGeometry x="20" y="-200" width="100" height="40" as="geometry" />
        </mxCell>
        <mxCell id="2mVvWZZznoN7XNSVlVtN-62" style="edgeStyle=orthogonalEdgeStyle;rounded=0;orthogonalLoop=1;jettySize=auto;html=1;exitX=0.5;exitY=1;exitDx=0;exitDy=0;endArrow=none;endFill=0;" edge="1" parent="1" source="2mVvWZZznoN7XNSVlVtN-60" target="2mVvWZZznoN7XNSVlVtN-24">
          <mxGeometry relative="1" as="geometry" />
        </mxCell>
        <mxCell id="2mVvWZZznoN7XNSVlVtN-60" value="tür_id" style="ellipse;whiteSpace=wrap;html=1;align=center;fontStyle=4;fillColor=#e1d5e7;strokeColor=#9673a6;" vertex="1" parent="1">
          <mxGeometry x="220" y="-210" width="100" height="40" as="geometry" />
        </mxCell>
        <mxCell id="2mVvWZZznoN7XNSVlVtN-63" style="edgeStyle=orthogonalEdgeStyle;rounded=0;orthogonalLoop=1;jettySize=auto;html=1;exitX=0.5;exitY=0;exitDx=0;exitDy=0;entryX=0.5;entryY=1;entryDx=0;entryDy=0;endArrow=none;endFill=0;" edge="1" parent="1" source="2mVvWZZznoN7XNSVlVtN-61" target="2mVvWZZznoN7XNSVlVtN-24">
          <mxGeometry relative="1" as="geometry" />
        </mxCell>
        <mxCell id="2mVvWZZznoN7XNSVlVtN-61" value="tas_id" style="ellipse;whiteSpace=wrap;html=1;align=center;fontStyle=4;fillColor=#e1d5e7;strokeColor=#9673a6;" vertex="1" parent="1">
          <mxGeometry x="220" width="100" height="40" as="geometry" />
        </mxCell>
        <mxCell id="2mVvWZZznoN7XNSVlVtN-67" style="edgeStyle=orthogonalEdgeStyle;rounded=0;orthogonalLoop=1;jettySize=auto;html=1;exitX=0;exitY=0.5;exitDx=0;exitDy=0;entryX=1;entryY=0.5;entryDx=0;entryDy=0;endArrow=none;endFill=0;" edge="1" parent="1" source="2mVvWZZznoN7XNSVlVtN-64" target="2mVvWZZznoN7XNSVlVtN-20">
          <mxGeometry relative="1" as="geometry" />
        </mxCell>
        <mxCell id="2mVvWZZznoN7XNSVlVtN-64" value="bölge_id" style="ellipse;whiteSpace=wrap;html=1;align=center;fontStyle=4;fillColor=#e1d5e7;strokeColor=#9673a6;" vertex="1" parent="1">
          <mxGeometry x="590" y="100" width="100" height="40" as="geometry" />
        </mxCell>
        <mxCell id="2mVvWZZznoN7XNSVlVtN-66" value="" style="edgeStyle=orthogonalEdgeStyle;rounded=0;orthogonalLoop=1;jettySize=auto;html=1;endArrow=none;endFill=0;" edge="1" parent="1" source="2mVvWZZznoN7XNSVlVtN-65" target="2mVvWZZznoN7XNSVlVtN-20">
          <mxGeometry relative="1" as="geometry" />
        </mxCell>
        <mxCell id="2mVvWZZznoN7XNSVlVtN-65" value="tas_id" style="ellipse;whiteSpace=wrap;html=1;align=center;fontStyle=4;fillColor=#e1d5e7;strokeColor=#9673a6;" vertex="1" parent="1">
          <mxGeometry x="300" y="100" width="100" height="40" as="geometry" />
        </mxCell>
        <mxCell id="2mVvWZZznoN7XNSVlVtN-71" style="edgeStyle=orthogonalEdgeStyle;rounded=0;orthogonalLoop=1;jettySize=auto;html=1;exitX=0.5;exitY=1;exitDx=0;exitDy=0;endArrow=none;endFill=0;" edge="1" parent="1" source="2mVvWZZznoN7XNSVlVtN-68" target="2mVvWZZznoN7XNSVlVtN-5">
          <mxGeometry relative="1" as="geometry" />
        </mxCell>
        <mxCell id="2mVvWZZznoN7XNSVlVtN-68" value="bölge_id" style="ellipse;whiteSpace=wrap;html=1;align=center;fontStyle=4;fillColor=#e1d5e7;strokeColor=#9673a6;" vertex="1" parent="1">
          <mxGeometry x="590" y="210" width="100" height="40" as="geometry" />
        </mxCell>
        <mxCell id="2mVvWZZznoN7XNSVlVtN-70" style="edgeStyle=orthogonalEdgeStyle;rounded=0;orthogonalLoop=1;jettySize=auto;html=1;exitX=0.5;exitY=0;exitDx=0;exitDy=0;entryX=0.5;entryY=1;entryDx=0;entryDy=0;endArrow=none;endFill=0;" edge="1" parent="1" source="2mVvWZZznoN7XNSVlVtN-69" target="2mVvWZZznoN7XNSVlVtN-5">
          <mxGeometry relative="1" as="geometry" />
        </mxCell>
        <mxCell id="2mVvWZZznoN7XNSVlVtN-69" value="herbalist_id" style="ellipse;whiteSpace=wrap;html=1;align=center;fontStyle=4;fillColor=#e1d5e7;strokeColor=#9673a6;" vertex="1" parent="1">
          <mxGeometry x="620" y="410" width="100" height="40" as="geometry" />
        </mxCell>
        <mxCell id="2mVvWZZznoN7XNSVlVtN-74" style="edgeStyle=orthogonalEdgeStyle;rounded=0;orthogonalLoop=1;jettySize=auto;html=1;exitX=0.5;exitY=1;exitDx=0;exitDy=0;endArrow=none;endFill=0;" edge="1" parent="1" source="2mVvWZZznoN7XNSVlVtN-72" target="2mVvWZZznoN7XNSVlVtN-12">
          <mxGeometry relative="1" as="geometry" />
        </mxCell>
        <mxCell id="2mVvWZZznoN7XNSVlVtN-72" value="bölge_id" style="ellipse;whiteSpace=wrap;html=1;align=center;fontStyle=4;fillColor=#e1d5e7;strokeColor=#9673a6;" vertex="1" parent="1">
          <mxGeometry x="260" y="220" width="100" height="40" as="geometry" />
        </mxCell>
        <mxCell id="2mVvWZZznoN7XNSVlVtN-75" style="edgeStyle=orthogonalEdgeStyle;rounded=0;orthogonalLoop=1;jettySize=auto;html=1;exitX=0.5;exitY=0;exitDx=0;exitDy=0;endArrow=none;endFill=0;" edge="1" parent="1" source="2mVvWZZznoN7XNSVlVtN-73" target="2mVvWZZznoN7XNSVlVtN-12">
          <mxGeometry relative="1" as="geometry" />
        </mxCell>
        <mxCell id="2mVvWZZznoN7XNSVlVtN-73" value="bitki_id" style="ellipse;whiteSpace=wrap;html=1;align=center;fontStyle=4;fillColor=#e1d5e7;strokeColor=#9673a6;" vertex="1" parent="1">
          <mxGeometry x="290" y="390" width="100" height="40" as="geometry" />
        </mxCell>
        <mxCell id="2mVvWZZznoN7XNSVlVtN-78" style="edgeStyle=orthogonalEdgeStyle;rounded=0;orthogonalLoop=1;jettySize=auto;html=1;exitX=1;exitY=0.5;exitDx=0;exitDy=0;entryX=0;entryY=1;entryDx=0;entryDy=0;endArrow=none;endFill=0;" edge="1" parent="1" source="2mVvWZZznoN7XNSVlVtN-76" target="2mVvWZZznoN7XNSVlVtN-28">
          <mxGeometry relative="1" as="geometry" />
        </mxCell>
        <mxCell id="2mVvWZZznoN7XNSVlVtN-76" value="bitki_id" style="ellipse;whiteSpace=wrap;html=1;align=center;fontStyle=4;fillColor=#e1d5e7;strokeColor=#9673a6;" vertex="1" parent="1">
          <mxGeometry x="-260" y="360" width="100" height="40" as="geometry" />
        </mxCell>
        <mxCell id="2mVvWZZznoN7XNSVlVtN-79" style="edgeStyle=orthogonalEdgeStyle;rounded=0;orthogonalLoop=1;jettySize=auto;html=1;exitX=0.5;exitY=1;exitDx=0;exitDy=0;entryX=0;entryY=0;entryDx=0;entryDy=0;endArrow=none;endFill=0;" edge="1" parent="1" source="2mVvWZZznoN7XNSVlVtN-77" target="2mVvWZZznoN7XNSVlVtN-28">
          <mxGeometry relative="1" as="geometry" />
        </mxCell>
        <mxCell id="2mVvWZZznoN7XNSVlVtN-77" value="tür_id" style="ellipse;whiteSpace=wrap;html=1;align=center;fontStyle=4;fillColor=#e1d5e7;strokeColor=#9673a6;" vertex="1" parent="1">
          <mxGeometry x="-200" y="230" width="100" height="40" as="geometry" />
        </mxCell>
        <mxCell id="2mVvWZZznoN7XNSVlVtN-80" value="FK" style="ellipse;whiteSpace=wrap;html=1;align=center;fontStyle=4;fillColor=#e1d5e7;strokeColor=#9673a6;" vertex="1" parent="1">
          <mxGeometry x="230" y="545" width="100" height="40" as="geometry" />
        </mxCell>
        <mxCell id="2mVvWZZznoN7XNSVlVtN-81" value="PK" style="ellipse;whiteSpace=wrap;html=1;align=center;fontStyle=4;fillColor=#f8cecc;strokeColor=#b85450;" vertex="1" parent="1">
          <mxGeometry x="370" y="545" width="100" height="40" as="geometry" />
        </mxCell>
        <mxCell id="2mVvWZZznoN7XNSVlVtN-93" style="edgeStyle=orthogonalEdgeStyle;rounded=0;orthogonalLoop=1;jettySize=auto;html=1;exitX=0;exitY=0.5;exitDx=0;exitDy=0;entryX=0.75;entryY=1;entryDx=0;entryDy=0;endArrow=none;endFill=0;" edge="1" parent="1" source="2mVvWZZznoN7XNSVlVtN-92" target="2mVvWZZznoN7XNSVlVtN-2">
          <mxGeometry relative="1" as="geometry" />
        </mxCell>
        <mxCell id="2mVvWZZznoN7XNSVlVtN-92" value="herbalist_tarih" style="ellipse;whiteSpace=wrap;html=1;align=center;fillColor=#ffe6cc;strokeColor=#d79b00;" vertex="1" parent="1">
          <mxGeometry x="930" y="410" width="100" height="40" as="geometry" />
        </mxCell>
      </root>
    </mxGraphModel>
  </diagram>
</mxfile>
